:SAMPLES-PER-SECOND 30
:FULLY-SPECIFIED
:DEGREES
434
root  28.4023 37.5489 11.3332 179.614 64.8012 -175.949
RightUpLeg  -19.8881 -16.3803 7.06024
RightLeg  26.6705 -4.04494 -2.44572
RightFoot  -4.27641 0.482251 -8.27188
RightToes  4.01633e-009 0 -3.6325e-017
Spine  9.81718 -2.98146 11.6199
Spine1  8.92574 -1.64256 -0.328698
HEad  0.264753 -5.62082 -2.62266
LeftShoulder1  0.202119 2.96582 -31.4726
LeftArm  -4.67746 5.57441 -42.7455
LeftForeArm  29.2555 -5.89324 -8.38156
LeftHand  0.0141491 2.93382 -1.49002
RightShoulder  -0.35628 -4.56602 26.4619
RightArm  7.60479 -0.994705 45.0418
RightForeArm  0.747947 2.62207 5.35842
RightHand  -0.618073 3.58539 -8.26296
LeftUpLeg  7.10141 7.80114 5.58533
LeftLeg  45.1808 0.0916395 0.566336
LeftFoot  -2.60184 0.778321 -11.845
LeftToes  -1.95724e-009 9.62483e-011 3.51777e-011
435
root  29.3999 37.5501 11.0075 -178.744 65.664 -173.989
RightUpLeg  -18.3685 -15.5969 7.7009
RightLeg  27.7713 -4.17064 -2.62413
RightFoot  -6.1433 0.339512 -8.33948
RightToes  4.01633e-009 0 -3.6325e-017
Spine  10.0342 -3.07866 12.6565
Spine1  9.17319 -1.45906 -0.244991
HEad  1.12907 -5.5398 -2.22786
LeftShoulder1  0.131393 3.15555 -31.5537
LeftArm  -4.74386 4.28951 -42.3957
LeftForeArm  29.2943 -5.20687 -8.31543
LeftHand  0.0127977 3.29473 -1.75145
RightShoulder  -0.275949 -4.33759 25.8222
RightArm  7.09411 1.4168 44.6266
RightForeArm  -0.732749 3.61179 5.23503
RightHand  -0.596854 3.95082 -7.67378
LeftUpLeg  0.911348 6.96493 6.26719
LeftLeg  55.1192 0.435225 1.09945
LeftFoot  8.75939 0.913105 -5.0337
LeftToes  -1.95724e-009 9.62483e-011 3.51777e-011
436
root  30.3804 37.6389 10.6837 -178.826 66.7948 -173.106
RightUpLeg  -15.5771 -14.6211 7.57627
RightLeg  28.025 -4.27782 -2.71403
RightFoot  -7.89619 0.182374 -7.84313
RightToes  4.01633e-009 0 -3.6325e-017
Spine  10.9424 -3.17553 13.4409
Spine1  9.22908 -1.05269 -0.862327
HEad  1.89167 -5.8047 -1.67725
LeftShoulder1  0.213124 2.92644 -30.9939
LeftArm  -5.21808 3.38892 -42.564
LeftForeArm  28.5259 -5.57877 -8.10045
LeftHand  -0.00524765 3.66877 -1.07945
RightShoulder  -0.233663 -4.21188 25.5529
RightArm  6.67459 4.88647 44.0945
RightForeArm  -0.726974 4.42093 5.13869
RightHand  -0.575417 3.56583 -7.71299
LeftUpLeg  -3.34522 6.09472 6.68368
LeftLeg  61.7162 -0.510095 -0.431784
LeftFoot  5.84045 0.602391 -4.22725
LeftToes  -1.95724e-009 9.62483e-011 3.51777e-011
437
root  31.3503 37.7795 10.339 -179.16 68.3952 -173.053
RightUpLeg  -13.0974 -13.2789 7.18948
RightLeg  27.7512 -4.17288 -2.629
RightFoot  -9.26211 0.0778012 -7.68622
RightToes  4.01633e-009 0 -3.6325e-017
Spine  11.0038 -3.01295 14.2567
Spine1  9.45664 -0.353169 -2.30716
HEad  3.22477 -5.36762 -1.25216
LeftShoulder1  0.410605 2.36096 -29.7674
LeftArm  -5.69672 2.0211 -43.1303
LeftForeArm  26.9895 -6.12878 -7.89989
LeftHand  -0.0123713 3.43597 -0.391841
RightShoulder  -0.18685 -4.07151 25.1059
RightArm  6.4053 9.14641 43.9528
RightForeArm  -0.960138 4.68177 5.15819
RightHand  -0.618156 4.58544 -7.46508
LeftUpLeg  -7.84876 5.011 6.20946
LeftLeg  65.0106 -1.15964 -2.04204
LeftFoot  4.28664 0.446062 -3.44472
LeftToes  -1.95724e-009 9.62483e-011 3.51777e-011
438
root  32.3754 37.9421 9.99646 -179.696 69.8714 -172.951
RightUpLeg  -9.87905 -12.2888 6.70787
RightLeg  26.7276 -3.83941 -2.26421
RightFoot  -10.5927 -0.0244121 -7.22996
RightToes  4.01633e-009 0 -3.6325e-017
Spine  10.7369 -2.78629 14.3683
Spine1  10.2165 0.0147381 -2.71042
HEad  4.6653 -5.0105 -1.38315
LeftShoulder1  0.406021 2.36254 -29.4771
LeftArm  -5.72044 -0.412484 -43.2105
LeftForeArm  25.4612 -7.01948 -7.85053
LeftHand  -0.0192675 3.17923 0.111706
RightShoulder  -0.100931 -3.81341 23.7163
RightArm  5.94916 13.8583 44.4556
RightForeArm  -2.01391 4.68837 5.14537
RightHand  -0.672358 4.62052 -8.07378
LeftUpLeg  -11.4352 3.77352 5.98912
LeftLeg  65.2036 -1.56239 -3.03343
LeftFoot  2.39394 0.329463 -2.85165
LeftToes  -1.95724e-009 9.62483e-011 3.51777e-011
